<?xml version="1.0" encoding="utf-8"?>
<!-- Generator: Adobe Illustrator 16.0.4, SVG Export Plug-In . SVG Version: 6.00 Build 0)  -->
<!DOCTYPE svg PUBLIC "-//W3C//DTD SVG 1.0//EN" "http://www.w3.org/TR/2001/REC-SVG-20010904/DTD/svg10.dtd" [
	<!ENTITY ns_flows "http://ns.adobe.com/Flows/1.0/">
	<!ENTITY ns_extend "http://ns.adobe.com/Extensibility/1.0/">
	<!ENTITY ns_ai "http://ns.adobe.com/AdobeIllustrator/10.0/">
	<!ENTITY ns_graphs "http://ns.adobe.com/Graphs/1.0/">
]>
<svg version="1.0" id="Capa_1" xmlns:x="&ns_extend;" xmlns:i="&ns_ai;" xmlns:graph="&ns_graphs;"
	 xmlns="http://www.w3.org/2000/svg" xmlns:xlink="http://www.w3.org/1999/xlink" xmlns:a="http://ns.adobe.com/AdobeSVGViewerExtensions/3.0/"
	 x="0px" y="0px" width="1475px" height="337px" viewBox="0 0 1475 337" enable-background="new 0 0 1475 337" xml:space="preserve"
	>
<path fill="#FFFFFF" d="M1462.885,89.38c0,9.02-7.08,16.099-16.293,16.099c-9.117,0-16.391-7.079-16.391-16.099
	c0-8.826,7.273-15.906,16.391-15.906C1455.805,73.474,1462.885,80.554,1462.885,89.38 M1434.273,89.38
	c0,7.08,5.238,12.705,12.414,12.705c6.983,0,12.124-5.625,12.124-12.608c0-7.08-5.141-12.802-12.22-12.802
	C1439.512,76.675,1434.273,82.396,1434.273,89.38 M1444.069,97.721h-3.685V81.815c2.562-0.512,8.712-1.027,11.637,0.679
	c1.886,1.465,2.812,5.811-1.746,7.177v0.194c3.595,1.347,2.658,5.734,4.075,7.856h-3.977c-0.485-0.582-0.776-2.037-1.261-3.88
	c-0.47-2.817-2.629-2.521-5.044-2.521V97.721z M1444.167,88.701h1.745c2.037,0,3.686-0.679,3.686-2.328
	c0-1.454-1.066-2.424-3.395-2.424c-0.971,0-1.648,0.097-2.036,0.194V88.701z"/>
<path fill="#FFFFFF" d="M119.676,42.365c-62.439,0-113.057,50.617-113.057,113.057c0,62.439,50.618,113.057,113.057,113.057
	s113.057-50.617,113.057-113.057C232.733,92.982,182.115,42.365,119.676,42.365 M119.676,253.822
	c-54.989,0-99.567-44.055-99.567-98.4c0-54.345,44.578-98.4,99.567-98.4c54.989,0,99.567,44.055,99.567,98.4
	C219.243,209.768,174.665,253.822,119.676,253.822"/>
<path fill="#FFFFFF" d="M557.016,75.189H428.139l-88.688,116.936h133.986c16.935,0,32.895-7.926,43.129-21.419l12.328-16.255
	c3.946-5.204,3.387-12.535-1.304-17.079l-0.929-0.901c12.071-2.728,22.79-9.631,30.269-19.491l12.745-16.301
	C577.611,90.216,570.148,75.189,557.016,75.189 M467.025,151.194l-8.931,11.775c-2.207,2.91-5.648,4.619-9.3,4.619h-27.203
	l17.171-22.641h25.16C467.141,144.947,468.97,148.629,467.025,151.194 M501.25,106.067l-7.195,9.487
	c-2.394,3.156-6.126,5.01-10.088,5.01h-26.712l15.9-20.965h24.883C501.37,99.599,503.264,103.412,501.25,106.067"/>
<path fill="#FFFFFF" d="M752.084,75.189h-102.39c-17.18,0-33.37,8.04-43.752,21.728l-52.897,69.747
	c-7.927,10.452-0.472,25.461,12.645,25.461h101.942c17.462,0,33.917-8.172,44.469-22.085l52.627-69.39
	C772.654,90.198,765.201,75.189,752.084,75.189 M696.322,106.851l-41.543,54.775c-2.848,3.756-7.291,5.962-12.005,5.962h-17.829
	c-3.164,0-4.962-3.62-3.05-6.141l42.658-56.245c2.677-3.53,6.852-5.603,11.282-5.603h16.885
	C696.457,99.599,698.58,103.874,696.322,106.851"/>
<path fill="#FFFFFF" d="M948.578,75.188H820.453l-88.687,116.938h128.125c0,0,19.381-24.538,18.609-24.538h-64.283l17.172-22.642
	h64.285l18.398-24.369l-64.191-0.014l15.9-20.965h63.582L948.578,75.188z"/>
<polygon fill="#FFFFFF" points="984.246,75.188 1048.705,75.188 960.018,192.126 895.557,192.126 "/>
<polygon fill="#FFFFFF" points="1151.406,192.125 1100.486,192.125 1087.412,133.657 1043.068,192.125 1000.256,192.125 
	1088.943,75.188 1138.736,75.188 1152.012,134.145 1196.727,75.188 1240.094,75.188 "/>
<path fill="#FFFFFF" d="M1342.629,115.454h64.602l10.643-14.032c8.168-10.769,0.486-26.233-13.029-26.233h-101.027
	c-17.439,0-33.873,8.161-44.412,22.056l-52.17,68.788c-8.123,10.711-0.482,26.092,12.959,26.092h100.104
	c18.133,0,35.221-8.487,46.178-22.936l11.779-15.531h14.322l18.793-24.615h-79.049l-25.021,32.993
	c-2.652,3.497-6.789,5.551-11.178,5.551h-17.637c-3.424,0-5.371-3.918-3.301-6.646l42.139-55.562
	c2.762-3.641,7.07-5.781,11.641-5.781h17.438c3.389,0,5.312,3.876,3.268,6.574L1342.629,115.454z"/>
<path fill="#FFFFFF" d="M399.282,235.482c-82.422,2.155-157.611,5.349-196.367,7.981l-41.132-77.428
	C237.426,239.298,401.984,226.518,399.282,235.482"/>
<path fill="#FFFFFF" d="M50.565,300.479c-14.018-12.435-4.312-53.11,28.386-107.111C147.104,80.813,240.598,6.64,240.598,6.64
	C169.023,49.646,128.21,92.486,93.467,135.214C21.886,223.247-1.532,306.165,28.702,327.415
	c12.757,8.967,56.288-0.836,91.034-53.271C100.043,291.675,65.964,314.14,50.565,300.479"/>
</svg>
